<?xml version="1.0" encoding="utf-8"?>
<!-- Generator: Adobe Illustrator 23.1.0, SVG Export Plug-In . SVG Version: 6.00 Build 0)  -->
<svg version="1.1" id="Layer_1" xmlns="http://www.w3.org/2000/svg" xmlns:xlink="http://www.w3.org/1999/xlink" x="0px" y="0px"
	 viewBox="0 0 105.64 124.47" style="enable-background:new 0 0 105.64 124.47;" xml:space="preserve">
<path d="M44.14,83.21c0.9-1.73,1.72-3.28,2.52-4.84c2.9-5.62,5.79-11.25,8.68-16.87c0.89-1.72,1.95-2.19,3.74-1.47
	c2.46,1,4.92,2.01,7.29,3.19c1,0.5,1.79,1.44,2.67,2.18c-0.03,0.12-0.07,0.23-0.1,0.35c-1.23,0.4-2.46,0.81-3.69,1.19
	c-2.6,0.8-4.86,2.16-6.74,4.12c-2.94,3.06-4.41,6.75-4.44,10.97c-0.04,5.5-0.03,10.99,0,16.49c0.02,2.92,0.52,5.78,1.46,8.55
	c0.1,0.29,0.2,0.59,0.28,0.89c0.03,0.09,0,0.2-0.02,0.47c-0.44,0-0.88,0-1.32,0c-15.84,0-31.67,0-47.51,0
	c-4.26,0-7.21-3.01-6.97-7.27c0.38-6.66,0.9-13.31,1.36-19.96c0.17-2.48,0.32-4.97,0.53-7.45c0.49-5.68,3.28-9.72,8.59-11.92
	c1.56-0.65,3.15-1.23,4.74-1.83c1.63-0.62,2.8-0.16,3.6,1.41c3.58,6.95,7.15,13.89,10.73,20.84c0.15,0.29,0.33,0.57,0.57,1
	c0.17-0.4,0.3-0.63,0.38-0.88c0.76-2.26,1.46-4.54,2.29-6.78c0.54-1.45,0.39-2.78-0.28-4.09c-0.52-1.01-1.1-2-1.61-3.02
	c-0.56-1.11-0.43-2.06,0.49-3c1.59-1.63,3.08-3.36,4.62-5.04c0.87-0.94,1.33-0.93,2.2,0.03c1.6,1.76,3.18,3.55,4.81,5.29
	c0.62,0.67,0.79,1.4,0.46,2.19c-0.37,0.89-0.82,1.75-1.31,2.58c-1.04,1.75-1.46,3.49-0.6,5.5c0.84,1.96,1.41,4.04,2.1,6.07
	C43.8,82.4,43.94,82.71,44.14,83.21z"/>
<path d="M16.15,27.74c-0.16-2.01-0.39-3.97-0.44-5.92c-0.05-2.03-0.06-4.09,0.18-6.1c0.45-3.85,2.82-6.33,6.16-8.02
	c0.6-0.3,1.19-0.7,1.68-1.15c3.82-3.56,8.14-6.17,13.45-6.5c7.62-0.48,13.47,2.84,17.61,9.1c3.53,5.34,4.29,11.36,3.57,17.61
	c-0.03,0.3-0.07,0.6-0.1,0.89c2.25,0.75,2.5,1.07,2.51,3.44c0,0.83,0.03,1.67-0.13,2.48c-0.3,1.51-1.25,2.56-2.73,2.97
	c-0.76,0.21-1.03,0.61-1.25,1.29c-1.57,4.77-3.73,9.25-7.22,12.93c-7.11,7.49-18.86,7.01-25.42-0.97
	c-2.94-3.57-4.95-7.64-6.36-12.02c-0.21-0.65-0.49-1.03-1.2-1.21c-1.16-0.29-2.05-1.03-2.5-2.16c-0.66-1.66-0.56-3.41-0.2-5.1
	C14,28.17,15.06,27.86,16.15,27.74z M54.28,31.84c-0.12-6.55-2.04-11.22-5.4-14.75c-1.69-1.77-3.43-2.58-6.03-2.11
	c-7.96,1.45-15.19,4.35-21.26,9.81c-0.39,0.35-0.86,0.84-0.92,1.31c-0.25,2.01-0.69,4.08-0.47,6.06c0.64,5.74,2.99,10.87,6.65,15.29
	c5.53,6.69,15.04,6.72,20.59,0.09c1.49-1.78,2.71-3.85,3.77-5.93C52.97,38.14,54.29,34.5,54.28,31.84z"/>
<path d="M105.64,90.59c-0.11,3.62,0.09,7.29-0.38,10.86c-1.08,8.15-5.42,14.26-12.66,18.12c-3.4,1.82-7.03,3.23-10.57,4.78
	c-0.36,0.16-0.9,0.14-1.26-0.02c-3.66-1.64-7.4-3.12-10.91-5.04c-7.22-3.96-11.56-10.2-12.23-18.37
	c-0.54-6.69-0.37-13.47-0.09-20.19c0.2-4.76,2.93-8.32,7.35-10.07c3.9-1.54,7.99-2.69,12.06-3.74c3.43-0.89,6.96-0.72,10.36,0.29
	c3.84,1.13,7.75,2.17,11.39,3.79c4.39,1.96,6.61,5.76,6.81,10.57c0.12,3,0.02,6.01,0.02,9.02C105.56,90.59,105.6,90.59,105.64,90.59
	z M61.24,90.62C61.23,90.62,61.23,90.62,61.24,90.62c0,2.52-0.06,5.05,0,7.57c0.2,8.45,4.1,14.6,11.65,18.38
	c2.53,1.27,5.14,2.39,7.74,3.51c0.47,0.2,1.17,0.22,1.64,0.03c2.46-1.02,4.91-2.06,7.29-3.24c8.01-3.95,12.12-10.4,12.15-19.37
	c0.02-5.12,0.02-10.23,0-15.35c-0.01-4.03-2.34-7.19-6.15-8.41c-2.57-0.82-5.14-1.62-7.7-2.45c-3.5-1.12-7.07-1.47-10.63-0.54
	c-3.57,0.93-7.13,1.99-10.58,3.29c-3.46,1.3-5.27,4.05-5.39,7.76C61.16,84.75,61.24,87.69,61.24,90.62z"/>
<path d="M64.12,90.54c0-2.8-0.01-5.6,0-8.4c0.02-2.75,1.46-4.78,4.08-5.6c3.39-1.07,6.78-2.19,10.22-3.05
	c2.72-0.67,5.5-0.37,8.19,0.46c2.64,0.82,5.28,1.65,7.91,2.5c2.84,0.92,4.3,2.91,4.31,5.88c0.01,5.36,0.12,10.72-0.03,16.07
	c-0.18,6.71-3.26,11.84-9.14,15.13c-2.41,1.34-4.99,2.38-7.52,3.49c-0.38,0.17-0.97,0.15-1.35-0.02c-2.56-1.13-5.17-2.18-7.62-3.53
	c-5.64-3.12-8.66-8.01-9.03-14.43C63.99,96.22,64.13,93.38,64.12,90.54C64.12,90.54,64.12,90.54,64.12,90.54z M94.01,88.38
	c-0.21-0.62-0.29-1.07-0.51-1.45c-0.95-1.66-2.9-1.82-4.38-0.35c-3.73,3.7-7.45,7.41-11.13,11.15c-0.61,0.62-0.99,0.61-1.56-0.02
	c-0.86-0.95-1.78-1.83-2.7-2.72c-1.27-1.23-2.82-1.25-3.94-0.08c-1.08,1.12-1.02,2.61,0.21,3.87c1.74,1.77,3.51,3.53,5.28,5.27
	c1.21,1.18,2.69,1.22,3.87,0.04c4.65-4.63,9.29-9.27,13.9-13.95C93.52,89.66,93.72,88.92,94.01,88.38z"/>
</svg>
