<?xml version="1.0" encoding="utf-8"?>
<!-- Generator: Adobe Illustrator 23.1.0, SVG Export Plug-In . SVG Version: 6.00 Build 0)  -->
<svg version="1.1" id="Layer_1" xmlns="http://www.w3.org/2000/svg" xmlns:xlink="http://www.w3.org/1999/xlink" x="0px" y="0px"
	 viewBox="0 0 24 24" style="enable-background:new 0 0 24 24;" xml:space="preserve">
<style type="text/css">
	.st0{fill:#004032;}
</style>
<path class="st0" d="M23.67,20.75L19,16.08c-0.21-0.21-0.5-0.33-0.8-0.33h-0.76c1.29-1.65,2.06-3.74,2.06-6
	C19.5,4.36,15.14,0,9.75,0C4.36,0,0,4.36,0,9.75c0,5.39,4.36,9.75,9.75,9.75c2.26,0,4.35-0.77,6-2.06v0.76c0,0.3,0.12,0.59,0.33,0.8
	l4.67,4.67c0.44,0.44,1.15,0.44,1.59,0l1.33-1.33C24.11,21.9,24.11,21.19,23.67,20.75z M9.75,15.75c-3.31,0-6-2.68-6-6
	c0-3.31,2.68-6,6-6c3.31,0,6,2.68,6,6C15.75,13.06,13.07,15.75,9.75,15.75z"/>
</svg>
